<svg width="72" height="72" viewBox="0 0 72 72" fill="none" xmlns="http://www.w3.org/2000/svg">
<g clip-path="url(#clip0_253_180)">
<path d="M44.7229 53.5003C42.0356 54.8562 39.3114 55.0781 36.5502 54.1659C33.6165 53.2291 31.0895 51.2322 28.9693 48.1751C27.8352 46.548 26.8614 44.662 26.0479 42.5172L24.8645 39.3739H16.1372L14.1772 44.0334C14.054 44.3539 13.9923 44.6127 13.9923 44.8099C13.9923 45.0072 14.0293 45.229 14.1033 45.4756C14.2019 45.6975 14.3868 45.907 14.658 46.1042C14.9538 46.2768 15.2743 46.3631 15.6195 46.3631H15.9153V46.7329H8.00153V46.3631H8.33436C8.90139 46.3631 9.45609 46.2029 9.99847 45.8824C10.5655 45.5372 11.0339 45.0318 11.4037 44.3662L19.6503 25.5433C18.6888 23.3738 17.6657 21.8822 16.5809 21.0687C15.6688 20.3784 14.7936 20.0332 13.9553 20.0332C13.1418 20.0332 12.3775 20.1565 11.6626 20.403L11.5886 20.0332C13.3637 19.121 15.0648 18.6649 16.6919 18.6649C18.7135 18.6649 20.5255 19.4538 22.128 21.0317C23.7058 22.5848 25.0987 24.8283 26.3067 27.7621L31.6689 41.001C33.6904 46.0056 35.7613 49.4448 37.8815 51.3185C38.7444 52.0827 39.6319 52.6128 40.5441 52.9086C41.4563 53.2044 42.2205 53.3524 42.8369 53.3524C43.4779 53.3524 44.0942 53.2784 44.6859 53.1305L44.7229 53.5003ZM16.7658 37.7837H24.3098L21.7212 30.9424C21.5979 30.5972 21.4253 30.1288 21.2035 29.5371C20.9816 28.9208 20.8337 28.4893 20.7597 28.2428L16.7658 37.7837Z" fill="#1A202C"/>
<mask id="mask0_253_180" style="mask-type:alpha" maskUnits="userSpaceOnUse" x="22" y="18" width="52" height="42">
<path d="M31.9554 30.005C29.9009 27.9505 22.5049 18.5 22.5049 18.5L59.896 20.5545L62.3613 41.5099L73.8663 51.7822L73.0445 60L67.292 58.7673L57.8415 51.7822L38.1187 50.9604C38.1187 50.9604 38.9405 50.5495 35.2425 45.6188C31.5445 40.6881 34.0098 32.0594 31.9554 30.005Z" fill="black"/>
</mask>
<g mask="url(#mask0_253_180)">
<path d="M63.9211 48.1849H64.5128V48.5547H53.4188V48.2219H53.9735C54.3926 48.1972 54.75 48.0246 55.0459 47.7041C55.3417 47.3836 55.465 47.0262 55.4157 46.6317L53.9735 33.2079L47.0212 45.1895C46.109 46.718 45.6406 48.0863 45.6159 49.2943H45.2461L35.7422 33.3188L34.3 46.6317C34.2507 47.0262 34.3739 47.396 34.6698 47.7411C34.9656 48.0616 35.3231 48.2219 35.7422 48.2219H36.2969V48.5547H28.5681V48.1849H29.1597C29.85 48.1849 30.4417 47.9753 30.9348 47.5562C31.4525 47.1371 31.7607 46.5701 31.8593 45.8551L34.9287 22.1508H35.2615L46.7253 41.0107L57.7454 22.1508H58.0783L61.2216 45.8551C61.3448 46.5701 61.653 47.1371 62.1461 47.5562C62.6638 47.9753 63.2555 48.1849 63.9211 48.1849Z" fill="#1A202C"/>
</g>
</g>
<defs>
<clipPath id="clip0_253_180">
<rect width="72" height="72" fill="white"/>
</clipPath>
</defs>
</svg>
