<svg width="72" height="72" viewBox="0 0 72 72" fill="none" xmlns="http://www.w3.org/2000/svg">
<path d="M44.7229 53.5003C42.0356 54.8562 39.3114 55.0781 36.5502 54.1659C33.6165 53.2291 31.0895 51.2322 28.9693 48.1751C27.8352 46.548 26.8614 44.662 26.0479 42.5172L24.8645 39.3739H16.1372L14.1772 44.0334C14.054 44.3539 13.9923 44.6127 13.9923 44.8099C13.9923 45.0072 14.0293 45.229 14.1033 45.4756C14.2019 45.6975 14.3868 45.907 14.658 46.1042C14.9538 46.2768 15.2743 46.3631 15.6195 46.3631H15.9153V46.7329H8.00153V46.3631H8.33436C8.90139 46.3631 9.45609 46.2029 9.99847 45.8824C10.5655 45.5372 11.0339 45.0318 11.4037 44.3662L19.6503 25.5433C18.6888 23.3738 17.6657 21.8822 16.5809 21.0687C15.6688 20.3784 14.7936 20.0332 13.9553 20.0332C13.1418 20.0332 12.3775 20.1565 11.6626 20.403L11.5886 20.0332C13.3637 19.121 15.0648 18.6649 16.6919 18.6649C18.7135 18.6649 20.5255 19.4538 22.128 21.0317C23.7058 22.5848 25.0987 24.8283 26.3067 27.7621L31.6689 41.001C33.6904 46.0056 35.7613 49.4448 37.8815 51.3185C38.7444 52.0827 39.6319 52.6128 40.5441 52.9086C41.4563 53.2044 42.2205 53.3524 42.8369 53.3524C43.4779 53.3524 44.0942 53.2784 44.6859 53.1305L44.7229 53.5003ZM16.7658 37.7837H24.3098L21.7212 30.9424C21.5979 30.5972 21.4253 30.1288 21.2035 29.5371C20.9816 28.9208 20.8337 28.4893 20.7597 28.2428L16.7658 37.7837Z" fill="black"/>
<path d="M63.9211 48.1849H64.5128V48.5547H53.4187V48.2219H53.9734C54.3925 48.1973 54.75 48.0247 55.0458 47.7042C55.3417 47.3837 55.465 47.0262 55.4156 46.6318L53.9734 33.208L47.0211 45.1895C46.109 46.7181 45.6405 48.0863 45.6159 49.2943H45.2461L35.7422 33.3189L34.9999 46.6318L32.4999 41.5L34.9286 22.1509H35.2614L46.7253 41.0108L57.7454 22.1509H58.0782L61.2215 45.8552C61.3448 46.5701 61.653 47.1372 62.146 47.5563C62.6638 47.9754 63.2554 48.1849 63.9211 48.1849Z" fill="black"/>
</svg>
