<svg width="72" height="72" fill="none" xmlns="http://www.w3.org/2000/svg"><path d="M33.637 51.461c.865 2.234 2.108 3.386 3.728 3.458V56c-1.44-.108-3.368-.162-5.781-.162-3.098 0-5.404.054-6.916.162v-1.08c1.368-.073 2.341-.235 2.917-.487.613-.288.919-.792.919-1.513 0-.612-.216-1.459-.649-2.54L24.56 41.52H11.483l-2.215 5.727c-.72 1.946-1.08 3.423-1.08 4.431 0 1.117.377 1.928 1.134 2.432.792.504 1.981.774 3.566.81V56a118.178 118.178 0 0 0-6.214-.162c-1.62 0-2.972.054-4.052.162v-1.08c1.8-.433 3.224-2 4.268-4.702l12.698-32.744h.865L33.637 51.46zm-9.51-11.023l-6.052-16.156-6.16 16.156h12.212z" fill="#1A202C"/><mask id="a" maskUnits="userSpaceOnUse" x="27" y="16" width="45" height="41"><path d="M27 16h44.188v40.345H47.173L34.205 44.818 30 33.5 27 28V16z" fill="#FFFFFF"/></mask><g mask="url(#a)"><path d="M69.794 18.825c-1.297.072-2.251.216-2.864.432-.576.216-.972.63-1.189 1.243-.216.612-.324 1.603-.324 2.972v26.8c0 1.37.108 2.36.325 2.972.216.613.612 1.027 1.188 1.243.613.216 1.567.36 2.864.432V56c-1.657-.108-3.944-.162-6.862-.162-3.098 0-5.404.054-6.917.162v-1.08c1.297-.073 2.234-.217 2.81-.433a1.943 1.943 0 0 0 1.243-1.243c.216-.612.324-1.603.324-2.972V21.31L47.37 56.27h-.865L32.89 21.202v28.53c0 1.405.108 2.45.324 3.134.252.684.72 1.189 1.405 1.513.684.288 1.747.468 3.188.54V56c-1.297-.108-3.134-.162-5.511-.162-2.162 0-3.837.054-5.026.162v-1.08c1.261-.073 2.198-.253 2.81-.541.613-.324 1.027-.828 1.243-1.513.216-.72.324-1.765.324-3.134v-26.26c0-1.37-.108-2.36-.324-2.972a1.943 1.943 0 0 0-1.243-1.243c-.576-.216-1.513-.36-2.81-.432v-1.08c1.19.107 2.864.161 5.026.161 1.873 0 3.404-.054 4.592-.162L48.775 49.03l11.617-31.124h2.54c2.918 0 5.205-.054 6.862-.162v1.08z" fill="#1A202C"/></g></svg>
